<?xml version="1.0" standalone="no"?>
<!DOCTYPE svg PUBLIC "-//W3C//DTD SVG 20010904//EN"
 "http://www.w3.org/TR/2001/REC-SVG-20010904/DTD/svg10.dtd">
<svg version="1.0" xmlns="http://www.w3.org/2000/svg"
 width="320.000000pt" height="318.000000pt" viewBox="0 0 320.000000 318.000000"
 preserveAspectRatio="xMidYMid meet">
<metadata>
Created by potrace 1.16, written by Peter Selinger 2001-2019
</metadata>
<g transform="translate(0.000000,318.000000) scale(0.100000,-0.100000)"
fill="#000000" stroke="none">
<path d="M1515 2884 c-88 -14 -134 -27 -139 -40 -3 -7 -12 -14 -20 -14 -8 0
-18 -5 -22 -12 -5 -8 -2 -9 10 -5 10 4 15 3 11 -3 -3 -6 -13 -10 -22 -10 -8 0
-27 -7 -41 -15 -15 -8 -80 -35 -146 -61 -65 -25 -147 -62 -182 -80 -71 -37
-79 -40 -68 -21 4 7 3 9 -2 4 -5 -5 -9 -12 -9 -17 0 -13 -134 -132 -142 -127
-5 2 -26 -19 -47 -47 -37 -47 -24 -48 16 -1 10 11 17 16 18 12 0 -13 -31 -57
-69 -96 -20 -21 -58 -82 -85 -137 -27 -54 -57 -110 -67 -124 -18 -27 -19 -29
-19 -63 0 -13 -7 -32 -16 -43 -15 -18 -15 -17 -8 11 4 17 8 44 10 62 3 52 62
162 141 266 33 44 38 54 19 40 -14 -10 -28 -26 -31 -35 -4 -10 -10 -18 -15
-18 -5 0 -28 -32 -50 -70 -23 -39 -45 -68 -50 -65 -11 7 -33 -32 -25 -45 3 -5
-1 -22 -10 -37 -9 -16 -14 -20 -11 -10 10 32 -3 17 -22 -25 -43 -98 -41 -97
-35 -58 3 19 12 50 19 69 8 18 14 41 13 50 0 9 -7 -2 -16 -23 -14 -33 -18 -36
-23 -20 -5 13 -18 -16 -45 -101 -21 -66 -42 -124 -47 -130 -27 -29 40 208 93
332 22 51 15 54 -24 11 -20 -22 -27 -26 -22 -13 18 49 14 56 -8 16 -21 -39
-25 -42 -31 -24 -4 11 2 38 14 64 27 61 25 97 -3 42 -11 -24 -25 -43 -29 -43
-5 0 -1 14 7 31 9 17 14 33 11 37 -3 3 -8 3 -10 1 -12 -14 -93 -239 -94 -263
-1 -16 -11 -43 -21 -60 -11 -17 -21 -44 -24 -61 -3 -16 -10 -42 -15 -56 -41
-105 -48 -420 -13 -555 19 -69 56 -205 66 -240 3 -10 0 -8 -6 6 -64 134 -84
212 -99 380 -6 63 -13 117 -17 120 -3 3 -3 -61 0 -141 4 -122 8 -152 26 -187
24 -47 26 -56 9 -46 -7 5 -9 2 -5 -9 3 -9 11 -35 17 -59 25 -93 128 -289 208
-398 41 -55 238 -255 289 -294 21 -16 50 -44 64 -62 31 -39 254 -192 318 -218
52 -20 164 -21 197 0 12 7 34 11 50 9 33 -4 104 12 104 24 0 4 11 13 24 20 13
7 43 43 67 79 38 57 43 72 43 119 0 30 -4 57 -10 61 -5 4 -22 28 -37 53 -32
56 -119 137 -156 145 -14 3 -34 10 -45 15 -13 7 -16 7 -11 0 10 -17 -6 -13
-43 9 -40 24 -49 25 -31 3 13 -15 11 -16 -16 -8 -16 4 -39 8 -50 9 -12 1 -33
9 -48 19 -14 9 -33 17 -41 17 -8 0 -18 5 -21 10 -3 5 -12 10 -18 10 -7 0 2
-11 18 -25 44 -35 22 -30 -46 11 -32 19 -69 36 -82 38 -35 4 -49 16 -44 38 5
16 3 17 -9 7 -21 -18 -72 35 -113 116 -31 63 -46 84 -35 47 4 -12 0 -10 -15 7
-12 13 -21 29 -21 37 0 8 -5 14 -11 14 -6 0 -8 7 -5 16 3 8 2 13 -3 10 -8 -6
-44 104 -36 112 2 2 10 -11 18 -29 8 -19 21 -40 30 -48 10 -7 17 -17 17 -22 0
-15 68 -103 90 -117 12 -7 0 13 -26 45 -28 34 -42 59 -35 61 9 3 7 9 -4 22 -9
10 -12 21 -7 24 5 3 31 -25 57 -62 57 -78 102 -122 125 -122 9 0 39 -11 66
-25 l49 -24 -38 32 c-98 83 -154 138 -171 169 l-19 33 27 -27 c15 -15 34 -24
42 -21 8 3 14 -1 14 -8 0 -7 3 -9 7 -6 3 4 -4 18 -17 32 -13 14 -20 25 -15 25
5 0 -3 12 -17 27 -58 63 -122 199 -132 283 -3 25 -8 65 -11 90 l-6 45 15 -35
c7 -19 19 -62 26 -95 7 -33 15 -54 18 -47 2 8 -1 32 -7 55 -15 55 -31 220 -24
246 3 12 0 27 -6 34 -6 8 -8 17 -4 20 3 4 2 7 -4 7 -17 0 -21 82 -5 112 7 15
14 42 14 58 1 22 5 29 15 26 17 -7 17 10 1 18 -10 3 -8 9 4 19 10 8 18 19 18
25 0 6 5 12 12 14 6 2 12 13 13 24 2 32 26 69 35 54 8 -13 8 -14 48 55 13 22
28 52 35 68 6 15 15 27 19 27 4 0 8 7 8 15 0 8 5 15 10 15 6 0 10 7 10 15 0 8
7 15 15 15 8 0 15 6 15 13 0 17 34 49 43 41 4 -4 11 4 16 17 5 13 18 33 30 43
11 11 21 23 21 28 0 15 -20 9 -37 -12 -32 -37 -35 -21 -4 17 17 21 31 44 31
52 0 11 -4 10 -15 -5 -10 -14 -14 -15 -15 -5 0 11 -5 10 -19 -5 -10 -10 -47
-46 -81 -79 -35 -33 -69 -75 -77 -93 -7 -18 -18 -30 -23 -27 -5 3 -12 0 -16
-6 -4 -8 -3 -9 4 -5 22 13 12 -6 -27 -55 -22 -27 -41 -44 -43 -37 -3 7 -18
-11 -34 -40 -16 -29 -32 -52 -36 -52 -7 0 3 20 41 83 14 22 27 34 31 28 8 -13
55 47 55 70 0 9 62 83 138 166 122 133 147 154 220 194 45 24 91 49 102 56 31
19 89 46 100 47 6 1 27 7 48 15 21 7 41 11 44 7 3 -3 -6 -8 -20 -11 -15 -4
-32 -14 -39 -23 -12 -14 -10 -14 12 -2 l25 13 -20 -23 -20 -23 32 17 c36 18
57 21 48 6 -3 -5 -37 -19 -75 -30 -39 -12 -70 -25 -70 -30 0 -6 -5 -10 -12
-10 -15 0 -90 -51 -84 -58 3 -2 20 6 38 19 18 13 37 24 43 25 5 2 31 9 58 17
42 13 64 9 37 -8 -5 -3 -10 -12 -10 -19 0 -16 71 -11 81 5 3 6 10 9 15 8 5 -2
29 3 54 11 45 13 130 24 130 16 0 -2 -33 -12 -72 -22 -67 -16 -131 -41 -168
-64 -62 -40 -214 -119 -220 -115 -13 8 -95 -47 -168 -112 -135 -119 -248 -314
-265 -457 -3 -21 -11 -42 -17 -46 -8 -5 -8 -10 -2 -14 9 -6 24 23 37 74 4 14
15 43 25 65 34 73 50 113 50 125 0 18 62 110 70 105 4 -3 16 8 26 23 20 31
134 142 146 142 5 0 13 11 18 25 5 14 14 25 20 25 6 0 8 -6 4 -12 -4 -7 2 -5
13 5 11 9 24 17 30 17 6 0 13 3 15 8 5 11 236 118 307 141 35 11 112 26 170
33 92 10 122 9 220 -6 148 -23 235 -54 331 -118 30 -20 58 -35 61 -32 4 2 41
-30 82 -72 78 -77 147 -171 147 -198 0 -8 4 -18 10 -21 12 -8 30 -48 68 -155
44 -126 60 -194 72 -302 15 -142 13 -217 -5 -224 -8 -4 -15 -16 -14 -28 0 -20
1 -20 9 -1 7 16 9 14 9 -15 1 -19 -3 -51 -8 -70 -5 -19 -14 -62 -22 -95 -17
-79 -57 -176 -109 -265 -46 -79 -169 -230 -227 -279 -96 -82 -106 -92 -88 -85
25 9 23 7 -46 -49 -31 -25 -93 -67 -138 -93 -45 -26 -79 -49 -77 -51 2 -3 18
3 35 11 36 19 45 20 35 4 -4 -7 -3 -8 5 -4 6 4 9 12 6 17 -3 5 1 6 9 3 9 -4
18 0 22 9 3 9 37 28 75 43 38 15 74 33 80 41 13 15 33 18 24 3 -4 -6 -52 -41
-108 -78 -148 -96 -184 -133 -70 -70 32 17 72 39 88 48 17 9 50 29 75 45 112
73 148 81 43 10 -32 -22 -70 -50 -84 -63 -14 -13 -57 -42 -95 -64 -38 -21 -58
-36 -46 -33 13 4 34 8 45 9 62 7 156 51 232 110 27 20 51 34 53 31 3 -3 -1
-12 -9 -19 -27 -25 -174 -123 -242 -161 -37 -20 -75 -47 -83 -60 -8 -12 -36
-31 -62 -40 -26 -10 -41 -20 -35 -22 11 -4 69 17 172 64 72 32 78 22 7 -13
-31 -15 -54 -29 -53 -31 4 -3 106 39 142 59 11 7 45 25 75 41 30 16 61 34 68
39 8 7 12 7 12 0 0 -14 -64 -57 -157 -107 -40 -22 -71 -41 -69 -43 6 -5 134
61 196 102 83 54 88 58 141 99 27 21 49 34 49 28 0 -7 -7 -14 -15 -17 -8 -4
-15 -10 -15 -15 0 -15 41 11 68 42 13 16 27 29 31 29 17 0 133 116 162 162 17
27 34 46 37 44 16 -17 -136 -186 -273 -306 -34 -29 -38 -34 -12 -16 51 37 58
27 10 -12 -21 -18 -46 -39 -56 -47 -28 -24 -139 -95 -149 -95 -5 0 -24 -11
-41 -24 -18 -13 -58 -36 -90 -52 -32 -16 -53 -30 -47 -32 6 -2 52 17 103 42
51 25 97 46 104 46 6 0 22 10 35 21 14 12 38 23 54 25 l29 3 -25 -19 c-33 -25
-225 -120 -243 -120 -8 0 -34 -7 -58 -16 -24 -9 -71 -25 -104 -35 -42 -14 -50
-18 -25 -15 60 6 176 35 206 51 16 8 34 15 41 15 7 0 39 14 71 30 33 17 69 30
81 30 12 0 24 7 27 15 3 8 21 19 40 25 19 6 34 18 34 26 0 8 19 23 43 34 53
26 71 40 80 63 3 9 14 17 23 17 9 0 26 9 38 20 11 10 39 36 61 56 22 20 34 33
28 29 -27 -13 -11 13 33 55 42 41 134 163 134 177 0 3 10 20 23 37 26 35 38
61 42 92 2 12 11 30 20 41 14 17 32 54 75 161 13 31 4 28 -15 -5 -9 -16 -13
-19 -9 -8 4 11 13 45 21 75 8 30 25 96 39 147 43 158 42 351 -2 614 -22 134
-83 310 -155 446 -34 65 -64 120 -68 123 -3 3 -23 30 -44 61 -21 30 -63 81
-92 111 -30 31 -55 61 -55 66 0 5 -9 12 -21 15 -12 3 -19 10 -16 14 3 5 -6 9
-21 9 -18 -1 -30 6 -39 24 -7 14 -13 19 -13 11 0 -11 -3 -11 -17 0 -10 7 -6 0
10 -15 15 -15 27 -28 27 -30 0 -10 -63 4 -78 17 -10 10 -25 17 -33 18 -22 1
-74 35 -72 47 2 6 -3 9 -11 6 -7 -3 -39 9 -70 25 -31 17 -59 31 -63 31 -12 0
84 -70 126 -92 25 -13 59 -37 76 -54 18 -17 44 -39 58 -49 15 -9 27 -23 27
-29 0 -7 14 -25 31 -42 44 -41 193 -274 175 -274 -3 0 -15 18 -26 40 -24 47
-192 220 -264 270 -128 92 -324 200 -361 200 -7 0 -16 4 -19 9 -3 5 -16 11
-28 14 -13 3 -79 19 -148 36 -122 31 -297 47 -375 35z m361 -90 c42 -9 110
-32 151 -51 41 -19 81 -32 89 -29 26 10 141 -56 214 -121 14 -13 28 -23 32
-23 4 0 17 -14 29 -31 l22 -32 -29 19 c-16 10 -57 38 -92 61 -35 24 -66 43
-70 43 -4 0 -30 15 -57 34 -55 37 -201 85 -274 91 -25 2 -66 12 -91 24 -28 13
-68 21 -105 22 -47 1 -53 3 -30 8 44 11 123 5 211 -15z"/>
</g>
</svg>
