<?xml version="1.0" standalone="no"?>
<!DOCTYPE svg PUBLIC "-//W3C//DTD SVG 20010904//EN"
 "http://www.w3.org/TR/2001/REC-SVG-20010904/DTD/svg10.dtd">
<svg version="1.0" xmlns="http://www.w3.org/2000/svg"
 width="492.000000pt" height="508.000000pt" viewBox="0 0 492.000000 508.000000"
 preserveAspectRatio="xMidYMid meet">
<metadata>
Created by potrace 1.16, written by Peter Selinger 2001-2019
</metadata>
<g transform="translate(0.000000,508.000000) scale(0.100000,-0.100000)"
fill="#000000" stroke="none">
<path d="M2190 4846 c-594 -69 -1060 -329 -1388 -774 -149 -201 -242 -415
-294 -673 -20 -98 -23 -145 -23 -339 0 -235 6 -292 51 -473 43 -171 114 -328
217 -482 90 -133 331 -370 471 -464 167 -111 325 -183 484 -221 l52 -12 0 -61
c0 -34 3 -79 6 -99 l7 -38 -489 0 c-528 0 -573 4 -672 54 -92 47 -151 142
-167 269 l-7 57 -54 0 -54 0 0 -475 0 -475 850 0 c673 0 850 3 850 13 1 57
-52 867 -58 885 -5 16 -29 32 -85 56 -180 78 -330 201 -434 356 -133 198 -229
552 -253 936 -36 584 112 1058 434 1392 180 186 358 287 596 338 124 26 364
25 486 -3 235 -54 424 -164 611 -354 139 -141 225 -273 298 -458 179 -452 175
-1184 -9 -1637 -107 -263 -310 -473 -553 -571 -49 -20 -89 -36 -90 -38 -2 -1
-18 -186 -38 -411 -19 -225 -37 -430 -40 -456 l-6 -48 856 0 855 0 0 475 0
475 -59 0 -58 0 -7 -62 c-11 -112 -82 -225 -168 -269 -89 -45 -134 -49 -655
-49 -463 0 -493 1 -492 18 0 9 6 53 12 97 l12 80 100 36 c299 108 507 237 700
433 226 231 369 501 434 823 73 357 39 764 -89 1073 -174 422 -559 781 -1023
954 -112 42 -297 89 -442 111 -138 22 -525 28 -675 11z"/>
</g>
</svg>
