<?xml version="1.0" standalone="no"?>
<!DOCTYPE svg PUBLIC "-//W3C//DTD SVG 20010904//EN"
 "http://www.w3.org/TR/2001/REC-SVG-20010904/DTD/svg10.dtd">
<svg version="1.0" xmlns="http://www.w3.org/2000/svg"
 width="500.000000pt" height="500.000000pt" viewBox="0 0 500.000000 500.000000"
 preserveAspectRatio="xMidYMid meet">
<metadata>
Created by potrace 1.16, written by Peter Selinger 2001-2019
</metadata>
<g transform="translate(0.000000,500.000000) scale(0.100000,-0.100000)"
fill="#000000" stroke="none">
<path d="M2220 3943 c-19 -1 -84 -8 -145 -13 -634 -61 -1246 -304 -1760 -700
-119 -93 -210 -181 -236 -232 -26 -50 -24 -107 4 -149 40 -61 785 -606 916
-671 109 -54 171 -50 171 11 0 42 -27 73 -165 193 -261 228 -485 445 -485 471
0 8 163 127 268 195 115 76 350 195 502 255 130 52 358 122 366 114 4 -3 -22
-65 -55 -138 -73 -155 -98 -240 -109 -365 -21 -250 42 -491 178 -673 67 -91
223 -240 295 -283 230 -138 512 -170 785 -91 328 95 590 362 677 690 23 86 26
118 26 258 0 132 -3 173 -21 237 -29 108 -74 212 -131 304 -27 43 -48 80 -47
82 6 5 318 -100 412 -139 246 -102 458 -223 653 -370 178 -134 165 -122 150
-148 -17 -26 -108 -103 -321 -270 -87 -68 -158 -126 -158 -129 0 -12 76 -122
84 -122 16 0 193 98 327 181 166 103 470 320 503 359 36 43 43 92 20 141 -50
113 -423 401 -748 578 -454 247 -889 377 -1406 421 -106 9 -468 11 -550 3z
m77 -639 c106 -51 168 -164 161 -289 -8 -115 -65 -203 -166 -252 -47 -23 -70
-28 -132 -27 -118 1 -209 54 -265 155 -27 49 -30 63 -30 144 0 74 4 97 23 132
80 150 259 210 409 137z"/>
<path d="M3805 2324 c-15 -25 -89 -128 -165 -229 -163 -216 -212 -296 -251
-408 -46 -132 -37 -253 30 -386 90 -178 283 -281 452 -241 156 36 264 155 316
350 27 101 24 291 -6 399 -50 177 -266 553 -322 559 -22 3 -31 -4 -54 -44z"/>
</g>
</svg>
